<?xml version="1.0"?>

<!DOCTYPE svg PUBLIC '-//W3C//DTD SVG 1.0//EN' 'http://www.w3.org/TR/2001/REC-SVG-20010904/DTD/svg10.dtd'>
<svg style="stroke-dasharray:none; shape-rendering:auto; font-family:&apos;Dialog&apos;; text-rendering:auto; fill-opacity:1; color-interpolation:auto; color-rendering:auto; font-size:12; fill:black; stroke:black; image-rendering:auto; stroke-miterlimit:10; stroke-linecap:square; stroke-linejoin:miter; font-style:normal; stroke-width:1; stroke-dashoffset:0; font-weight:normal; stroke-opacity:1;" xmlns="http://www.w3.org/2000/svg" contentScriptType="text/ecmascript" preserveAspectRatio="xMidYMid meet" xmlns:xlink="http://www.w3.org/1999/xlink" zoomAndPan="magnify" version="1.0" contentStyleType="text/css">
  <!--Generated by the Batik Graphics2D SVG Generator-->
  <defs id="genericDefs" />
  <g>
    <defs id="defs1">
      <clipPath clipPathUnits="userSpaceOnUse" id="clipPath1">
        <path d="M0 0 L800 0 L800 800 L0 800 L0 0 Z" />
      </clipPath>
    </defs>
    <g style="fill:white; text-rendering:optimizeLegibility; stroke:white;">
      <rect x="0" y="0" width="800" style="clip-path:url(#clipPath1); stroke:none;" height="800" />
      <rect x="0" y="0" width="800" style="clip-path:url(#clipPath1); stroke:none;" height="800" />
    </g>
    <g style="text-rendering:optimizeLegibility; stroke-dasharray:4,2,4,2; stroke-linecap:butt;">
      <polygon style="fill:none; clip-path:url(#clipPath1);" points=" 184 162 193 153 283 153 292 162 292 272 283 281 193 281 184 272" />
      <polygon style="fill:white; clip-path:url(#clipPath1); stroke:none;" points=" 185 162 193 154 283 154 291 162 291 272 283 280 193 280 185 272" />
      <polygon style="fill:rgb(247,247,247); clip-path:url(#clipPath1); stroke:none;" points=" 188 162 193 157 283 157 288 162 288 272 283 277 193 277 188 272" />
      <polygon points=" 188 162 193 157 283 157 288 162 288 272 283 277 193 277 188 272" style="clip-path:url(#clipPath1); fill:none; stroke-linejoin:round; stroke-dasharray:none; stroke-width:2;" />
      <text x="226" y="270" style="clip-path:url(#clipPath1); text-rendering:geometricPrecision; stroke-linejoin:bevel; stroke-dasharray:none; stroke:none;" xml:space="preserve">s</text>
      <text x="232" y="270" style="clip-path:url(#clipPath1); text-rendering:geometricPrecision; stroke-linejoin:bevel; stroke-dasharray:none; stroke:none;" xml:space="preserve">5</text>
      <text x="240" y="270" style="clip-path:url(#clipPath1); text-rendering:geometricPrecision; stroke-linejoin:bevel; stroke-dasharray:none; stroke:none;" xml:space="preserve">2</text>
      <polygon style="fill:none; text-rendering:geometricPrecision; clip-path:url(#clipPath1);" points=" 369 258 378 249 468 249 477 258 477 368 468 377 378 377 369 368" />
      <polygon points=" 370 258 378 250 468 250 476 258 476 368 468 376 378 376 370 368" style="fill:white; text-rendering:geometricPrecision; clip-path:url(#clipPath1); stroke:none;" />
      <polygon points=" 373 258 378 253 468 253 473 258 473 368 468 373 378 373 373 368" style="fill:rgb(247,247,247); text-rendering:geometricPrecision; clip-path:url(#clipPath1); stroke:none;" />
    </g>
    <g style="text-rendering:geometricPrecision; stroke-width:2; stroke-linejoin:round; stroke-linecap:butt;">
      <polygon style="fill:none; clip-path:url(#clipPath1);" points=" 373 258 378 253 468 253 473 258 473 368 468 373 378 373 373 368" />
      <text x="411" y="366" style="clip-path:url(#clipPath1); stroke-linejoin:bevel; stroke:none; stroke-width:1;" xml:space="preserve">s</text>
      <text x="417" y="366" style="clip-path:url(#clipPath1); stroke-linejoin:bevel; stroke:none; stroke-width:1;" xml:space="preserve">5</text>
      <text x="425" y="366" style="clip-path:url(#clipPath1); stroke-linejoin:bevel; stroke:none; stroke-width:1;" xml:space="preserve">5</text>
    </g>
    <g style="fill:rgb(153,153,255); text-rendering:geometricPrecision; stroke-linejoin:bevel; stroke-linecap:butt; stroke:rgb(153,153,255);">
      <circle style="clip-path:url(#clipPath1); stroke:none;" r="12.5" cx="37" cy="84" />
      <circle style="clip-path:url(#clipPath1); fill:none; stroke-linejoin:round; stroke:black;" r="12.5" cx="37" cy="84" />
      <text x="28" y="88" style="clip-path:url(#clipPath1); fill:black; stroke-linejoin:round; stroke:none;" xml:space="preserve">C</text>
      <text x="36" y="88" style="clip-path:url(#clipPath1); fill:black; stroke-linejoin:round; stroke:none;" xml:space="preserve">a</text>
      <rect x="389" y="31" width="80" style="clip-path:url(#clipPath1); fill:rgb(204,255,204); stroke-linejoin:round; stroke:none;" rx="5" ry="5" height="40" />
      <rect x="389" y="31" width="80" style="clip-path:url(#clipPath1); fill:none; stroke-linejoin:round; stroke:black;" rx="5" ry="5" height="40" />
      <text x="408" y="55" style="clip-path:url(#clipPath1); fill:black; stroke:none;" xml:space="preserve">C</text>
      <text x="416" y="55" style="clip-path:url(#clipPath1); fill:black; stroke:none;" xml:space="preserve">a</text>
      <text x="423" y="55" style="clip-path:url(#clipPath1); fill:black; stroke:none;" xml:space="preserve">M</text>
      <text x="433" y="55" style="clip-path:url(#clipPath1); fill:black; stroke:none;" xml:space="preserve">K</text>
      <text x="441" y="55" style="clip-path:url(#clipPath1); fill:black; stroke:none;" xml:space="preserve">I</text>
      <text x="444" y="55" style="clip-path:url(#clipPath1); fill:black; stroke:none;" xml:space="preserve">I</text>
      <rect x="384" y="258" width="80" style="clip-path:url(#clipPath1); fill:rgb(204,255,204); stroke:none;" rx="5" ry="5" height="40" />
      <rect x="384" y="258" width="80" style="clip-path:url(#clipPath1); fill:none; stroke-linejoin:round; stroke:black;" rx="5" ry="5" height="40" />
      <text x="403" y="282" style="clip-path:url(#clipPath1); fill:black; stroke:none;" xml:space="preserve">C</text>
      <text x="411" y="282" style="clip-path:url(#clipPath1); fill:black; stroke:none;" xml:space="preserve">a</text>
      <text x="418" y="282" style="clip-path:url(#clipPath1); fill:black; stroke:none;" xml:space="preserve">M</text>
      <text x="428" y="282" style="clip-path:url(#clipPath1); fill:black; stroke:none;" xml:space="preserve">K</text>
      <text x="436" y="282" style="clip-path:url(#clipPath1); fill:black; stroke:none;" xml:space="preserve">I</text>
      <text x="439" y="282" style="clip-path:url(#clipPath1); fill:black; stroke:none;" xml:space="preserve">I</text>
      <rect x="91" y="15" width="80" style="clip-path:url(#clipPath1); fill:rgb(204,255,204); stroke:none;" rx="5" ry="5" height="40" />
      <rect x="91" y="15" width="80" style="clip-path:url(#clipPath1); fill:none; stroke-linejoin:round; stroke:black;" rx="5" ry="5" height="40" />
      <text x="98" y="39" style="clip-path:url(#clipPath1); fill:black; stroke:none;" xml:space="preserve">C</text>
      <text x="106" y="39" style="clip-path:url(#clipPath1); fill:black; stroke:none;" xml:space="preserve">a</text>
      <text x="113" y="39" style="clip-path:url(#clipPath1); fill:black; stroke:none;" xml:space="preserve">l</text>
      <text x="116" y="39" style="clip-path:url(#clipPath1); fill:black; stroke:none;" xml:space="preserve">m</text>
      <text x="127" y="39" style="clip-path:url(#clipPath1); fill:black; stroke:none;" xml:space="preserve">o</text>
      <text x="134" y="39" style="clip-path:url(#clipPath1); fill:black; stroke:none;" xml:space="preserve">d</text>
      <text x="142" y="39" style="clip-path:url(#clipPath1); fill:black; stroke:none;" xml:space="preserve">u</text>
      <text x="149" y="39" style="clip-path:url(#clipPath1); fill:black; stroke:none;" xml:space="preserve">l</text>
      <text x="152" y="39" style="clip-path:url(#clipPath1); fill:black; stroke:none;" xml:space="preserve">i</text>
      <text x="155" y="39" style="clip-path:url(#clipPath1); fill:black; stroke:none;" xml:space="preserve">n</text>
    </g>
    <g style="text-rendering:geometricPrecision; stroke-dasharray:4,2,4,2; stroke-linecap:butt;">
      <rect x="86" y="118" width="88" style="clip-path:url(#clipPath1); fill:none;" rx="9" ry="9" height="48" />
      <rect x="87" y="119" width="86" style="clip-path:url(#clipPath1); fill:white; stroke:none;" rx="8" ry="8" height="46" />
      <rect x="90" y="122" width="80" style="clip-path:url(#clipPath1); fill:rgb(204,255,204); stroke:none;" rx="5" ry="5" height="40" />
      <rect x="90" y="122" width="80" style="clip-path:url(#clipPath1); fill:none; stroke-linejoin:round; stroke-dasharray:none;" rx="5" ry="5" height="40" />
      <text x="97" y="146" style="clip-path:url(#clipPath1); stroke-linejoin:bevel; stroke-dasharray:none; stroke:none;" xml:space="preserve">C</text>
      <text x="105" y="146" style="clip-path:url(#clipPath1); stroke-linejoin:bevel; stroke-dasharray:none; stroke:none;" xml:space="preserve">a</text>
      <text x="112" y="146" style="clip-path:url(#clipPath1); stroke-linejoin:bevel; stroke-dasharray:none; stroke:none;" xml:space="preserve">l</text>
      <text x="115" y="146" style="clip-path:url(#clipPath1); stroke-linejoin:bevel; stroke-dasharray:none; stroke:none;" xml:space="preserve">m</text>
      <text x="126" y="146" style="clip-path:url(#clipPath1); stroke-linejoin:bevel; stroke-dasharray:none; stroke:none;" xml:space="preserve">o</text>
      <text x="133" y="146" style="clip-path:url(#clipPath1); stroke-linejoin:bevel; stroke-dasharray:none; stroke:none;" xml:space="preserve">d</text>
      <text x="141" y="146" style="clip-path:url(#clipPath1); stroke-linejoin:bevel; stroke-dasharray:none; stroke:none;" xml:space="preserve">u</text>
      <text x="148" y="146" style="clip-path:url(#clipPath1); stroke-linejoin:bevel; stroke-dasharray:none; stroke:none;" xml:space="preserve">l</text>
      <text x="151" y="146" style="clip-path:url(#clipPath1); stroke-linejoin:bevel; stroke-dasharray:none; stroke:none;" xml:space="preserve">i</text>
      <text x="154" y="146" style="clip-path:url(#clipPath1); stroke-linejoin:bevel; stroke-dasharray:none; stroke:none;" xml:space="preserve">n</text>
    </g>
    <g style="fill:rgb(204,255,255); text-rendering:geometricPrecision; stroke-linejoin:bevel; stroke-linecap:butt; stroke:rgb(204,255,255);">
      <rect x="496" y="175" width="60" style="clip-path:url(#clipPath1); stroke:none;" rx="5" ry="5" height="40" />
      <rect x="556" y="175" width="20" style="clip-path:url(#clipPath1); stroke:none;" rx="5" ry="5" height="40" />
      <rect x="496" y="175" width="60" style="clip-path:url(#clipPath1); fill:none; stroke-linejoin:round; stroke:black;" rx="5" ry="5" height="40" />
      <rect x="556" y="175" width="20" style="clip-path:url(#clipPath1); fill:none; stroke-linejoin:round; stroke:black;" rx="5" ry="5" height="40" />
      <text x="508" y="199" style="clip-path:url(#clipPath1); fill:black; stroke:none;" xml:space="preserve">A</text>
      <text x="516" y="199" style="clip-path:url(#clipPath1); fill:black; stroke:none;" xml:space="preserve">M</text>
      <text x="526" y="199" style="clip-path:url(#clipPath1); fill:black; stroke:none;" xml:space="preserve">P</text>
      <text x="533" y="199" style="clip-path:url(#clipPath1); fill:black; stroke:none;" xml:space="preserve">A</text>
      <rect x="494" y="337" width="60" style="clip-path:url(#clipPath1); stroke:none;" rx="5" ry="5" height="40" />
      <rect x="554" y="337" width="20" style="clip-path:url(#clipPath1); stroke:none;" rx="5" ry="5" height="40" />
      <rect x="494" y="337" width="60" style="clip-path:url(#clipPath1); fill:none; stroke-linejoin:round; stroke:black;" rx="5" ry="5" height="40" />
      <rect x="554" y="337" width="20" style="clip-path:url(#clipPath1); fill:none; stroke-linejoin:round; stroke:black;" rx="5" ry="5" height="40" />
      <text x="506" y="361" style="clip-path:url(#clipPath1); fill:black; stroke:none;" xml:space="preserve">A</text>
      <text x="514" y="361" style="clip-path:url(#clipPath1); fill:black; stroke:none;" xml:space="preserve">M</text>
      <text x="524" y="361" style="clip-path:url(#clipPath1); fill:black; stroke:none;" xml:space="preserve">P</text>
      <text x="531" y="361" style="clip-path:url(#clipPath1); fill:black; stroke:none;" xml:space="preserve">A</text>
      <rect x="9" y="186" width="80" style="clip-path:url(#clipPath1); fill:rgb(204,255,204); stroke:none;" rx="5" ry="5" height="40" />
      <rect x="9" y="186" width="80" style="clip-path:url(#clipPath1); fill:none; stroke-linejoin:round; stroke:black;" rx="5" ry="5" height="40" />
      <text x="33" y="210" style="clip-path:url(#clipPath1); fill:black; stroke:none;" xml:space="preserve">P</text>
      <text x="40" y="210" style="clip-path:url(#clipPath1); fill:black; stroke:none;" xml:space="preserve">P</text>
      <text x="47" y="210" style="clip-path:url(#clipPath1); fill:black; stroke:none;" xml:space="preserve">2</text>
      <text x="55" y="210" style="clip-path:url(#clipPath1); fill:black; stroke:none;" xml:space="preserve">B</text>
      <rect x="198" y="217" width="80" style="clip-path:url(#clipPath1); fill:rgb(204,255,204); stroke:none;" rx="5" ry="5" height="40" />
      <rect x="198" y="217" width="80" style="clip-path:url(#clipPath1); fill:none; stroke-linejoin:round; stroke:black;" rx="5" ry="5" height="40" />
      <text x="222" y="241" style="clip-path:url(#clipPath1); fill:black; stroke:none;" xml:space="preserve">P</text>
      <text x="229" y="241" style="clip-path:url(#clipPath1); fill:black; stroke:none;" xml:space="preserve">P</text>
      <text x="236" y="241" style="clip-path:url(#clipPath1); fill:black; stroke:none;" xml:space="preserve">2</text>
      <text x="244" y="241" style="clip-path:url(#clipPath1); fill:black; stroke:none;" xml:space="preserve">B</text>
    </g>
    <g style="text-rendering:geometricPrecision; stroke-dasharray:4,2,4,2; stroke-linecap:butt;">
      <rect x="209" y="332" width="88" style="clip-path:url(#clipPath1); fill:none;" rx="9" ry="9" height="48" />
      <rect x="210" y="333" width="86" style="clip-path:url(#clipPath1); fill:white; stroke:none;" rx="8" ry="8" height="46" />
      <rect x="213" y="336" width="80" style="clip-path:url(#clipPath1); fill:rgb(204,255,204); stroke:none;" rx="5" ry="5" height="40" />
      <rect x="213" y="336" width="80" style="clip-path:url(#clipPath1); fill:none; stroke-linejoin:round; stroke-dasharray:none;" rx="5" ry="5" height="40" />
      <text x="241" y="360" style="clip-path:url(#clipPath1); stroke-linejoin:bevel; stroke-dasharray:none; stroke:none;" xml:space="preserve">P</text>
      <text x="248" y="360" style="clip-path:url(#clipPath1); stroke-linejoin:bevel; stroke-dasharray:none; stroke:none;" xml:space="preserve">P</text>
      <text x="255" y="360" style="clip-path:url(#clipPath1); stroke-linejoin:bevel; stroke-dasharray:none; stroke:none;" xml:space="preserve">1</text>
    </g>
    <g style="fill:rgb(204,255,204); text-rendering:geometricPrecision; stroke-linejoin:bevel; stroke-linecap:butt; stroke:rgb(204,255,204);">
      <rect x="35" y="338" width="80" style="clip-path:url(#clipPath1); stroke:none;" rx="5" ry="5" height="40" />
      <rect x="35" y="338" width="80" style="clip-path:url(#clipPath1); fill:none; stroke-linejoin:round; stroke:black;" rx="5" ry="5" height="40" />
      <text x="63" y="362" style="clip-path:url(#clipPath1); fill:black; stroke:none;" xml:space="preserve">P</text>
      <text x="70" y="362" style="clip-path:url(#clipPath1); fill:black; stroke:none;" xml:space="preserve">P</text>
      <text x="77" y="362" style="clip-path:url(#clipPath1); fill:black; stroke:none;" xml:space="preserve">1</text>
      <rect x="199" y="172" width="80" style="clip-path:url(#clipPath1); stroke:none;" rx="5" ry="5" height="40" />
      <rect x="199" y="172" width="80" style="clip-path:url(#clipPath1); fill:none; stroke-linejoin:round; stroke:black;" rx="5" ry="5" height="40" />
      <text x="206" y="196" style="clip-path:url(#clipPath1); fill:black; stroke:none;" xml:space="preserve">C</text>
      <text x="214" y="196" style="clip-path:url(#clipPath1); fill:black; stroke:none;" xml:space="preserve">a</text>
      <text x="221" y="196" style="clip-path:url(#clipPath1); fill:black; stroke:none;" xml:space="preserve">l</text>
      <text x="224" y="196" style="clip-path:url(#clipPath1); fill:black; stroke:none;" xml:space="preserve">m</text>
      <text x="235" y="196" style="clip-path:url(#clipPath1); fill:black; stroke:none;" xml:space="preserve">o</text>
      <text x="242" y="196" style="clip-path:url(#clipPath1); fill:black; stroke:none;" xml:space="preserve">d</text>
      <text x="250" y="196" style="clip-path:url(#clipPath1); fill:black; stroke:none;" xml:space="preserve">u</text>
      <text x="257" y="196" style="clip-path:url(#clipPath1); fill:black; stroke:none;" xml:space="preserve">l</text>
      <text x="260" y="196" style="clip-path:url(#clipPath1); fill:black; stroke:none;" xml:space="preserve">i</text>
      <text x="263" y="196" style="clip-path:url(#clipPath1); fill:black; stroke:none;" xml:space="preserve">n</text>
      <rect x="385" y="318" width="80" style="clip-path:url(#clipPath1); stroke:none;" rx="5" ry="5" height="40" />
      <rect x="385" y="318" width="80" style="clip-path:url(#clipPath1); fill:none; stroke-linejoin:round; stroke:black;" rx="5" ry="5" height="40" />
      <text x="392" y="342" style="clip-path:url(#clipPath1); fill:black; stroke:none;" xml:space="preserve">C</text>
      <text x="400" y="342" style="clip-path:url(#clipPath1); fill:black; stroke:none;" xml:space="preserve">a</text>
      <text x="407" y="342" style="clip-path:url(#clipPath1); fill:black; stroke:none;" xml:space="preserve">l</text>
      <text x="410" y="342" style="clip-path:url(#clipPath1); fill:black; stroke:none;" xml:space="preserve">m</text>
      <text x="421" y="342" style="clip-path:url(#clipPath1); fill:black; stroke:none;" xml:space="preserve">o</text>
      <text x="428" y="342" style="clip-path:url(#clipPath1); fill:black; stroke:none;" xml:space="preserve">d</text>
      <text x="436" y="342" style="clip-path:url(#clipPath1); fill:black; stroke:none;" xml:space="preserve">u</text>
      <text x="443" y="342" style="clip-path:url(#clipPath1); fill:black; stroke:none;" xml:space="preserve">l</text>
      <text x="446" y="342" style="clip-path:url(#clipPath1); fill:black; stroke:none;" xml:space="preserve">i</text>
      <text x="449" y="342" style="clip-path:url(#clipPath1); fill:black; stroke:none;" xml:space="preserve">n</text>
    </g>
    <g style="stroke-linecap:round; fill:white; text-rendering:geometricPrecision; stroke-linejoin:round; stroke:white; stroke-width:5;">
      <line x1="130.8657" x2="130.1343" y1="64" style="clip-path:url(#clipPath1); fill:none;" y2="113" />
      <line x1="57.5485" x2="125.4906" y1="88.7416" style="clip-path:url(#clipPath1); fill:none;" y2="88.4252" />
    </g>
    <g style="stroke-linecap:round; text-rendering:geometricPrecision;">
      <line x1="130.9851" x2="130.2015" y1="56" style="clip-path:url(#clipPath1); fill:none;" y2="108.5015" />
      <polygon style="clip-path:url(#clipPath1); stroke:none;" points=" 130 122 125 106 135 107 130 122" />
      <path d="M135.5842 83.5653 L135.4347 93.5842 L125.4158 93.4347 L125.5653 83.4158 L135.5842 83.5653 Z" style="fill:white; clip-path:url(#clipPath1); stroke:none;" />
      <path d="M135.5842 83.5653 L135.4347 93.5842 L125.4158 93.4347 L125.5653 83.4158 L135.5842 83.5653 Z" style="fill:none; clip-path:url(#clipPath1); stroke-linecap:butt;" />
    </g>
    <g style="text-rendering:geometricPrecision; font-size:10; font-weight:bold; font-family:&apos;Times New Roman&apos;; stroke-linecap:butt;">
      <text x="130.5" y="91.5" style="clip-path:url(#clipPath1); stroke:none;" xml:space="preserve"></text>
    </g>
    <g style="fill:white; text-rendering:geometricPrecision; stroke-linecap:round; stroke:white;">
      <path d="M135.5842 83.5653 L135.4347 93.5842 L125.4158 93.4347 L125.5653 83.4158 L135.5842 83.5653 Z" style="clip-path:url(#clipPath1); stroke:none;" />
      <path style="fill:none; clip-path:url(#clipPath1); stroke-linecap:butt; stroke:black;" d="M135.5842 83.5653 L135.4347 93.5842 L125.4158 93.4347 L125.5653 83.4158 L135.5842 83.5653 Z" />
    </g>
    <g style="text-rendering:geometricPrecision; font-size:10; font-weight:bold; font-family:&apos;Times New Roman&apos;; stroke-linecap:butt;">
      <text x="130.5" y="91.5" style="clip-path:url(#clipPath1); stroke:none;" xml:space="preserve"></text>
      <text x="135" y="68" style="font-size:12; clip-path:url(#clipPath1); font-family:&apos;Dialog&apos;; stroke:none; font-weight:normal;" xml:space="preserve">re9</text>
    </g>
    <g style="stroke-linecap:round; text-rendering:geometricPrecision;">
      <line x1="49.5485" x2="123.9906" y1="88.7789" style="clip-path:url(#clipPath1); fill:none;" y2="88.4322" />
      <polygon style="fill:white; clip-path:url(#clipPath1); stroke:none;" points=" 124 88 116 92 116 84 124 88" />
      <polygon style="fill:none; clip-path:url(#clipPath1);" points=" 124 88 116 92 116 84 124 88" />
      <text x="52" y="101" style="stroke-linecap:butt; clip-path:url(#clipPath1); stroke:none;" xml:space="preserve">re9</text>
    </g>
    <g style="stroke-linecap:round; fill:white; text-rendering:geometricPrecision; stroke-linejoin:round; stroke:white; stroke-width:5;">
      <line x1="535.8525" x2="534.1475" y1="224" style="clip-path:url(#clipPath1); fill:none;" y2="328" />
      <line x1="483" x2="529.9907" y1="281.7573" style="clip-path:url(#clipPath1); fill:none;" y2="275.9179" />
    </g>
    <g style="stroke-linecap:round; text-rendering:geometricPrecision;">
      <line x1="535.9836" x2="534.2213" y1="216" style="clip-path:url(#clipPath1); fill:none;" y2="323.5018" />
      <polygon style="clip-path:url(#clipPath1); stroke:none;" points=" 534 337 529 321 539 322 534 337" />
      <path d="M540.0914 271.0728 L539.9272 281.0915 L529.9086 280.9272 L530.0728 270.9085 L540.0914 271.0728 Z" style="fill:white; clip-path:url(#clipPath1); stroke:none;" />
      <path d="M540.0914 271.0728 L539.9272 281.0915 L529.9086 280.9272 L530.0728 270.9085 L540.0914 271.0728 Z" style="fill:none; clip-path:url(#clipPath1); stroke-linecap:butt;" />
    </g>
    <g style="text-rendering:geometricPrecision; font-size:10; font-weight:bold; font-family:&apos;Times New Roman&apos;; stroke-linecap:butt;">
      <text x="535" y="279" style="clip-path:url(#clipPath1); stroke:none;" xml:space="preserve"></text>
    </g>
    <g style="fill:white; text-rendering:geometricPrecision; stroke-linecap:round; stroke:white;">
      <path d="M540.0914 271.0728 L539.9272 281.0915 L529.9086 280.9272 L530.0728 270.9085 L540.0914 271.0728 Z" style="clip-path:url(#clipPath1); stroke:none;" />
      <path style="fill:none; clip-path:url(#clipPath1); stroke-linecap:butt; stroke:black;" d="M540.0914 271.0728 L539.9272 281.0915 L529.9086 280.9272 L530.0728 270.9085 L540.0914 271.0728 Z" />
    </g>
    <g style="text-rendering:geometricPrecision; font-size:10; font-weight:bold; font-family:&apos;Times New Roman&apos;; stroke-linecap:butt;">
      <text x="535" y="279" style="clip-path:url(#clipPath1); stroke:none;" xml:space="preserve"></text>
      <text x="540" y="228" style="font-size:12; clip-path:url(#clipPath1); font-family:&apos;Dialog&apos;; stroke:none; font-weight:normal;" xml:space="preserve">re10</text>
    </g>
    <g style="stroke-linecap:round; text-rendering:geometricPrecision;">
      <line x1="474" x2="521.0594" y1="282.8757" style="clip-path:url(#clipPath1); fill:none;" y2="277.0278" />
      <path d="M528.9983 276.0412 L521.5527 280.9972 L513.1204 278.0143 L520.5661 273.0583 L528.9983 276.0412 Z" style="fill:white; clip-path:url(#clipPath1); stroke:none;" />
      <path d="M528.9983 276.0412 L521.5527 280.9972 L513.1204 278.0143 L520.5661 273.0583 L528.9983 276.0412 Z" style="fill:none; clip-path:url(#clipPath1);" />
      <text x="477" y="296" style="stroke-linecap:butt; clip-path:url(#clipPath1); stroke:none;" xml:space="preserve">re10</text>
    </g>
    <g style="stroke-linecap:round; fill:white; text-rendering:geometricPrecision; stroke-linejoin:round; stroke:white; stroke-width:5;">
      <line x1="124" x2="204" y1="357.8163" style="clip-path:url(#clipPath1); fill:none;" y2="356.1837" />
      <line x1="207.1122" x2="168.9067" y1="287" style="clip-path:url(#clipPath1); fill:none;" y2="351.8888" />
    </g>
    <g style="stroke-linecap:round; text-rendering:geometricPrecision;">
      <line x1="116" x2="199.5028" y1="357.9796" style="clip-path:url(#clipPath1); fill:none;" y2="356.2755" />
      <polygon style="clip-path:url(#clipPath1); stroke:none;" points=" 213 356 198 361 197 351 213 356" />
      <path d="M158.8888 352.0933 L168.9067 351.8888 L169.1112 361.9067 L159.0933 362.1112 L158.8888 352.0933 Z" style="fill:white; clip-path:url(#clipPath1); stroke:none;" />
      <path d="M158.8888 352.0933 L168.9067 351.8888 L169.1112 361.9067 L159.0933 362.1112 L158.8888 352.0933 Z" style="fill:none; clip-path:url(#clipPath1); stroke-linecap:butt;" />
    </g>
    <g style="text-rendering:geometricPrecision; font-size:10; font-weight:bold; font-family:&apos;Times New Roman&apos;; stroke-linecap:butt;">
      <text x="164" y="360" style="clip-path:url(#clipPath1); stroke:none;" xml:space="preserve"></text>
    </g>
    <g style="fill:white; text-rendering:geometricPrecision; stroke-linecap:round; stroke:white;">
      <path d="M158.8888 352.0933 L168.9067 351.8888 L169.1112 361.9067 L159.0933 362.1112 L158.8888 352.0933 Z" style="clip-path:url(#clipPath1); stroke:none;" />
      <path style="fill:none; clip-path:url(#clipPath1); stroke-linecap:butt; stroke:black;" d="M158.8888 352.0933 L168.9067 351.8888 L169.1112 361.9067 L159.0933 362.1112 L158.8888 352.0933 Z" />
    </g>
    <g style="text-rendering:geometricPrecision; font-size:10; font-weight:bold; font-family:&apos;Times New Roman&apos;; stroke-linecap:butt;">
      <text x="164" y="360" style="clip-path:url(#clipPath1); stroke:none;" xml:space="preserve"></text>
      <text x="119" y="371" style="font-size:12; clip-path:url(#clipPath1); font-family:&apos;Dialog&apos;; stroke:none; font-weight:normal;" xml:space="preserve">re13</text>
    </g>
    <g style="stroke-linecap:round; text-rendering:geometricPrecision;">
      <line x1="212.4112" x2="171.1899" y1="278" style="clip-path:url(#clipPath1); fill:none;" y2="348.011" />
      <circle style="stroke-linecap:square; clip-path:url(#clipPath1); fill:white; stroke:none;" r="3" cx="171.1899" cy="348.011" />
      <circle style="stroke-linecap:square; clip-path:url(#clipPath1); fill:none;" r="3" cx="171.1899" cy="348.011" />
      <text x="217" y="290" style="stroke-linecap:butt; clip-path:url(#clipPath1); stroke:none;" xml:space="preserve">re13</text>
    </g>
    <g style="stroke-linecap:round; fill:white; text-rendering:geometricPrecision; stroke-linejoin:round; stroke:white; stroke-width:5;">
      <line x1="130" x2="130" y1="206.75" style="clip-path:url(#clipPath1); fill:none;" y2="171" />
      <line x1="130" x2="98" y1="206.75" style="clip-path:url(#clipPath1); fill:none;" y2="206.1646" />
      <line x1="130" x2="178" y1="206.75" style="clip-path:url(#clipPath1); fill:none;" y2="215.2328" />
    </g>
    <g style="stroke-linecap:round; text-rendering:geometricPrecision;">
      <line x1="130" x2="130" y1="206.75" style="clip-path:url(#clipPath1); fill:none;" y2="163" />
      <line x1="130" x2="90" y1="206.75" style="clip-path:url(#clipPath1); fill:none;" y2="206.0183" />
      <line x1="130" x2="174.706" y1="206.75" style="clip-path:url(#clipPath1); fill:none;" y2="214.6506" />
      <polygon style="clip-path:url(#clipPath1); stroke:none;" points=" 188 217 172 219 174 209 188 217" />
      <path d="M163.0617 217.6804 L153.1946 215.9367 L154.9383 206.0696 L164.8054 207.8133 L163.0617 217.6804 Z" style="fill:white; clip-path:url(#clipPath1); stroke:none;" />
      <path d="M163.0617 217.6804 L153.1946 215.9367 L154.9383 206.0696 L164.8054 207.8133 L163.0617 217.6804 Z" style="fill:none; clip-path:url(#clipPath1); stroke-linecap:butt;" />
    </g>
    <g style="text-rendering:geometricPrecision; font-size:10; font-weight:bold; font-family:&apos;Times New Roman&apos;; stroke-linecap:butt;">
      <text x="159" y="214.875" style="clip-path:url(#clipPath1); stroke:none;" xml:space="preserve"></text>
    </g>
    <g style="fill:white; text-rendering:geometricPrecision; stroke-linecap:butt; stroke:white;">
      <path d="M163.0617 217.6804 L153.1946 215.9367 L154.9383 206.0696 L164.8054 207.8133 L163.0617 217.6804 Z" style="clip-path:url(#clipPath1); stroke:none;" />
      <path d="M163.0617 217.6804 L153.1946 215.9367 L154.9383 206.0696 L164.8054 207.8133 L163.0617 217.6804 Z" style="fill:none; clip-path:url(#clipPath1); stroke:black;" />
    </g>
    <g style="text-rendering:geometricPrecision; font-size:10; font-weight:bold; font-family:&apos;Times New Roman&apos;; stroke-linecap:butt;">
      <text x="159" y="214.875" style="clip-path:url(#clipPath1); stroke:none;" xml:space="preserve"></text>
      <circle style="clip-path:url(#clipPath1); stroke:none;" r="3.5" cx="130" cy="206.75" />
      <text x="93" y="200" style="font-size:12; clip-path:url(#clipPath1); font-family:&apos;Dialog&apos;; stroke:none; font-weight:normal;" xml:space="preserve">re20</text>
    </g>
    <g style="stroke-linecap:round; fill:white; text-rendering:geometricPrecision; stroke-linejoin:round; stroke:white; stroke-width:5;">
      <line x1="426" x2="179" y1="125" style="clip-path:url(#clipPath1); fill:none;" y2="131.7539" />
      <line x1="426" x2="428.5" y1="125" style="clip-path:url(#clipPath1); fill:none;" y2="80" />
      <line x1="426" x2="423.2344" y1="125" style="clip-path:url(#clipPath1); fill:none;" y2="243" />
      <line x1="262" x2="419.4914" y1="328.0473" style="clip-path:url(#clipPath1); fill:none;" y2="188.8826" />
    </g>
    <g style="stroke-linecap:round; text-rendering:geometricPrecision;">
      <line x1="426" x2="171" y1="125" style="clip-path:url(#clipPath1); fill:none;" y2="131.9727" />
      <line x1="426" x2="428.9444" y1="125" style="clip-path:url(#clipPath1); fill:none;" y2="72" />
      <line x1="426" x2="423.3163" y1="125" style="clip-path:url(#clipPath1); fill:none;" y2="239.5037" />
      <polygon style="clip-path:url(#clipPath1); stroke:none;" points=" 423 253 418 237 428 238 423 253" />
      <path d="M419.374 193.8912 L419.6088 183.874 L429.626 184.1088 L429.3912 194.126 L419.374 193.8912 Z" style="fill:white; clip-path:url(#clipPath1); stroke:none;" />
      <path d="M419.374 193.8912 L419.6088 183.874 L429.626 184.1088 L429.3912 194.126 L419.374 193.8912 Z" style="fill:none; clip-path:url(#clipPath1); stroke-linecap:butt;" />
    </g>
    <g style="text-rendering:geometricPrecision; font-size:10; font-weight:bold; font-family:&apos;Times New Roman&apos;; stroke-linecap:butt;">
      <text x="424.5" y="192" style="clip-path:url(#clipPath1); stroke:none;" xml:space="preserve"></text>
    </g>
    <g style="fill:white; text-rendering:geometricPrecision; stroke-linecap:butt; stroke:white;">
      <path d="M419.374 193.8912 L419.6088 183.874 L429.626 184.1088 L429.3912 194.126 L419.374 193.8912 Z" style="clip-path:url(#clipPath1); stroke:none;" />
      <path d="M419.374 193.8912 L419.6088 183.874 L429.626 184.1088 L429.3912 194.126 L419.374 193.8912 Z" style="fill:none; clip-path:url(#clipPath1); stroke:black;" />
    </g>
    <g style="text-rendering:geometricPrecision; font-size:10; font-weight:bold; font-family:&apos;Times New Roman&apos;; stroke-linecap:butt;">
      <text x="424.5" y="192" style="clip-path:url(#clipPath1); stroke:none;" xml:space="preserve"></text>
      <circle style="clip-path:url(#clipPath1); stroke:none;" r="3.5" cx="426" cy="125" />
      <text x="433" y="84" style="font-size:12; clip-path:url(#clipPath1); font-family:&apos;Dialog&apos;; stroke:none; font-weight:normal;" xml:space="preserve">re22</text>
    </g>
    <g style="stroke-linecap:round; text-rendering:geometricPrecision;">
      <line x1="254" x2="416.8686" y1="335.1164" style="clip-path:url(#clipPath1); fill:none;" y2="191.2002" />
      <line x1="420.9288" x2="414.3072" y1="194.2848" style="stroke-linecap:butt; clip-path:url(#clipPath1); fill:none; stroke-linejoin:bevel;" y2="186.7912" />
      <text x="213" y="330" style="stroke-linecap:butt; clip-path:url(#clipPath1); stroke:none;" xml:space="preserve">re22</text>
    </g>
  </g>
</svg>
